<svg xmlns="http://www.w3.org/2000/svg" aria-hidden="true" style="width:0;height:0;position:absolute;overflow:hidden"><defs><symbol id="icon-burger" viewBox="0 0 32 32"><path stroke-width="1.6" d="M0 6.4h32M0 16h32M0 25.6h32"/></symbol><symbol id="icon-ellipse" viewBox="0 0 32 32"><path d="M32 16c0 8.837-7.163 16-16 16S0 24.837 0 16 7.163 0 16 0s16 7.163 16 16z"/></symbol><symbol id="icon-close" viewBox="0 0 32 32"><path stroke-width="2" d="m2.519 2 26.963 28M2 29.481 30 2.518"/></symbol><symbol id="icon-telegram" viewBox="0 0 32 32"><path d="m12.964 19.8-.508 6.671c.727 0 1.042-.292 1.42-.641l3.409-3.04 7.063 4.828c1.295.674 2.208.319 2.557-1.112l4.638-20.277c.411-1.787-.692-2.486-1.955-2.048L2.336 13.919c-1.86.674-1.832 1.641-.316 2.08l6.967 2.023L25.17 8.571c.762-.471 1.454-.21.884.26L12.963 19.802z"/></symbol><symbol id="icon-home" viewBox="0 0 32 32"><path d="M30.129 15.447c.553-.6.5-1.52-.119-2.054L16.374 1.623c-.619-.534-1.611-.523-2.217.025L.475 14.02a1.414 1.414 0 0 0-.066 2.051l.343.352c.569.584 1.489.654 2.053.155l1.023-.903v13.224c0 .811.667 1.468 1.488 1.468h5.333c.822 0 1.488-.657 1.488-1.468v-9.252h6.803v9.252c-.012.811.576 1.468 1.398 1.468h5.652c.822 0 1.488-.657 1.488-1.468V15.861l.631.546c.349.302 1.078.06 1.631-.541l.388-.42z"/></symbol><symbol id="icon-github" viewBox="0 0 32 32"><path d="M16 .941C7.729.941.941 7.729.941 16c0 7.058 4.953 13.47 11.529 15.059v-4.982c-.652.143-1.251.147-1.915-.049-.89-.263-1.613-.856-2.15-1.76-.342-.577-.949-1.203-1.581-1.157l-.155-1.758c1.368-.117 2.551.833 3.254 2.013.312.525.671.832 1.132.969.446.131.924.068 1.481-.129.14-1.116.651-1.534 1.037-2.122v-.001c-3.922-.585-5.486-2.666-6.106-4.308-.822-2.181-.381-4.905 1.073-6.627.028-.034.079-.121.06-.183-.667-2.014.146-3.679.176-3.856.769.228.894-.229 3.342 1.258l.423.254c.177.105.121.045.298.032a12.77 12.77 0 0 1 3.16-.445 12.84 12.84 0 0 1 3.204.456l.137.014c-.012-.002.037-.009.12-.058 3.057-1.852 2.947-1.247 3.767-1.513.03.177.831 1.87.172 3.858-.089.274 2.65 2.782 1.132 6.809-.62 1.643-2.184 3.724-6.106 4.309v.001c.503.766 1.107 1.174 1.104 2.755v6.219c6.577-1.589 11.529-8.001 11.529-15.059C31.058 7.728 24.271.94 15.999.94z"/></symbol><symbol id="icon-facebook" viewBox="0 0 32 32"><path d="M22.266 15.97H18.09v15.39h-6.327V15.97H8.754v-5.409h3.009v-3.5c0-2.503 1.182-6.422 6.384-6.422l4.687.02v5.25h-3.401c-.558 0-1.342.28-1.342 1.474v3.183h4.729l-.553 5.403z"/></symbol><symbol id="icon-arrow" viewBox="0 0 32 32"><path stroke-linecap="round" stroke-linejoin="round" stroke-width="6.4" d="M6.742 3.2 23.567 16 6.742 28.8"/></symbol><symbol id="icon-ellipse" viewBox="0 0 32 32"><path d="M32 16c0 8.837-7.163 16-16 16S0 24.837 0 16 7.163 0 16 0s16 7.163 16 16z"/></symbol></defs></svg>